<svg xmlns="http://www.w3.org/2000/svg" viewBox="0 0 1024 1024"
     data-schema-version="2" data-id="hat_beanie_slouch"
     data-content-version="1">
  <path data-part="hair_mask" data-z="90" data-slot="hat.primary" data-opacity="0" data-publish-mask="occlude.hair_top" d="M 270.3 106 L 270.4 105.9 Q 285.7 95.4 302 86.4 Q 302.6 63.8 319.5 43.3 Q 336 23.4 366.1 8.4 Q 395.4 -6.3 433.5 -14.2 Q 438.1 -15.2 442.8 -16 L 581.2 -16 Q 585.9 -15.2 590.5 -14.2 Q 628.6 -6.3 657.9 8.4 Q 688 23.4 704.5 43.3 Q 721.4 63.8 722 86.4 Q 738.3 95.4 753.7 106 Q 803.7 140.1 841.2 187.7 Q 878.5 235.1 900.6 292.3 Q 903.3 299.3 903.2 306.8 Q 903.1 314.4 899.9 321.4 Q 896.9 328.3 891.3 333.5 Q 888.3 336.4 884.8 338.5 Q 884.3 338.9 883.6 339.2 Q 883 339.4 882.3 339.6 Q 881.7 339.8 881 339.9 Q 880.3 340 879.6 340 L 144.4 340 Q 143.7 340 143.1 339.9 Q 142.4 339.8 141.7 339.6 Q 141.1 339.5 140.5 339.2 Q 139.8 338.9 139.3 338.6 Q 135.2 336.1 131.9 332.9 Q 126.7 327.6 123.7 320.6 Q 120.8 313.6 120.8 306 Q 120.8 304.3 120.9 302.6 Q 121.1 300.7 121.5 298.8 Q 121.8 297.3 122.3 295.6 Q 122.7 293.9 123.4 292.2 Q 145.6 235 182.8 187.7 Q 220.3 140.1 270.3 106 Z"/>
  <path data-part="back" data-z="20" data-slot="hat.secondary" d="M 267 101 Q 281.2 91.2 296.2 82.7 Q 297.9 60 314.9 39.5 Q 332.2 18.6 363.4 3 Q 386.5 -8.5 414.8 -16 L 609.2 -16 Q 637.5 -8.5 660.6 3 Q 691.8 18.6 709.1 39.5 Q 726.1 60 727.8 82.7 Q 742.8 91.2 757 101 Q 807.9 135.7 845.9 184 Q 883.8 232.1 906.2 290.1 Q 909.4 298.3 909.2 306.9 Q 909 315.8 905.4 323.9 Q 902 331.8 895.4 337.9 Q 892 341.1 888 343.6 Q 887 344.2 886 344.6 Q 885 345.1 884 345.4 Q 882.9 345.7 881.8 345.8 Q 880.7 346 879.6 346 L 871.1 346 C 821.6 199.6 688.4 96 512 96 C 335.6 96 202.4 199.6 152.9 346 L 144.4 346 Q 143.3 346 142.2 345.9 Q 141.2 345.7 140.1 345.4 Q 139.1 345.1 138.1 344.7 Q 137.1 344.3 136.2 343.7 Q 131.5 340.9 127.7 337.1 Q 121.6 331 118.2 322.9 Q 114.8 314.8 114.8 306 Q 114.8 304.1 114.9 302.2 Q 115.1 299.9 115.6 297.7 Q 115.9 295.9 116.5 294 Q 117 292 117.8 290 Q 140.3 232 178.1 184 Q 216.1 135.7 267 101 Z"/>
  <path data-part="crown" data-z="90" data-slot="hat.primary" d="M 276 114.2 Q 293.5 102.2 312.2 92.2 Q 312 90.1 312 88 Q 312 68.1 327.2 49.7 Q 342.4 31.4 370.6 17.3 Q 398.7 3.2 435.5 -4.4 Q 472.2 -12 512 -12 Q 551.8 -12 588.5 -4.4 Q 625.3 3.2 653.4 17.3 Q 681.6 31.4 696.8 49.7 Q 712 68.1 712 88 Q 712 90.1 711.8 92.2 Q 730.5 102.2 748 114.2 Q 796.8 147.5 833.3 193.9 Q 869.7 240.1 891.3 295.9 Q 893.3 301.1 893.2 306.6 Q 893.1 312.2 890.8 317.3 Q 888.6 322.4 884.5 326.2 Q 882.2 328.4 879.6 330 L 144.4 330 Q 141.4 328.2 139 325.8 Q 135.1 321.9 132.9 316.7 Q 130.8 311.6 130.8 306 Q 130.8 304.7 130.9 303.4 Q 131 302.1 131.3 300.8 Q 131.5 299.6 131.9 298.3 Q 132.2 297.1 132.7 295.9 Q 154.3 240.1 190.7 193.9 Q 227.2 147.5 276 114.2 Z"/>
  <path data-part="band" data-z="90" data-slot="hat.secondary" d="M 168 276 L 856 276 L 856 304 L 168 304 L 168 276 Z"/>
  <path data-part="pom" data-z="90" data-slot="hat.secondary" d="M 563.7 65.4 Q 568 55.1 568 44 Q 568 32.9 563.7 22.6 Q 559.5 12.3 551.6 4.4 Q 543.7 -3.5 533.4 -7.7 Q 523.1 -12 512 -12 Q 500.9 -12 490.6 -7.7 Q 480.3 -3.5 472.4 4.4 Q 464.5 12.3 460.3 22.6 Q 456 32.9 456 44 Q 456 55.1 460.3 65.4 Q 464.5 75.7 472.4 83.6 Q 480.3 91.5 490.6 95.7 Q 500.9 100 512 100 Q 523.1 100 533.4 95.7 Q 543.7 91.5 551.6 83.6 Q 559.5 75.7 563.7 65.4 Z"/>
  <path data-part="shade" data-z="90" data-slot="hat.shadow" d="M 520 330 L 879.6 330 Q 882.2 328.4 884.5 326.2 Q 888.6 322.4 890.8 317.3 Q 893.1 312.2 893.2 306.6 Q 893.3 301.1 891.3 295.9 Q 869.7 240.1 833.3 193.9 Q 799.9 151.5 756.3 120 L 520 120 L 520 330 Z"/>
  <path data-part="highlight" data-z="90" data-slot="hat.highlight" d="M 480 -10.7 L 480 200 L 186 200 Q 188.3 196.9 190.7 193.9 Q 227.2 147.5 276 114.2 Q 293.5 102.2 312.2 92.2 Q 312 90.1 312 88 Q 312 68.1 327.2 49.7 Q 342.4 31.4 370.6 17.3 Q 398.7 3.2 435.5 -4.4 Q 457.2 -8.9 480 -10.7 Z"/>
  <path data-part="outline" data-z="35" data-slot="outline" data-fill-rule="evenodd" d="M 254.5 82.9 Q 265 75.6 276 69 Q 280.9 46 298 25.5 Q 318.2 1 353.6 -16.7 Q 378.7 -29.2 409.2 -37.3 Q 409.9 -37.4 410.6 -37.6 Q 411.3 -37.7 412 -37.8 Q 412.7 -37.9 413.4 -38 Q 414.1 -38 414.8 -38 L 609.2 -38 Q 609.9 -38 610.6 -38 Q 611.3 -37.9 612 -37.8 Q 612.7 -37.7 613.4 -37.6 Q 614.1 -37.4 614.8 -37.3 Q 645.3 -29.2 670.4 -16.7 Q 705.8 1 726 25.5 Q 743.1 46 748 69 Q 758.9 75.6 769.4 82.8 Q 823.1 119.4 863.2 170.4 Q 903.1 221.1 926.7 282.1 Q 931.5 294.4 931.2 307.4 Q 930.9 320.7 925.6 332.6 Q 920.4 344.8 910.5 353.9 Q 905.5 358.6 899.3 362.5 Q 897.2 363.7 895 364.7 Q 892.7 365.8 890.3 366.5 Q 890.3 366.5 890.2 366.5 Q 890.1 366.5 890.1 366.6 Q 890 366.6 889.9 366.6 Q 889.9 366.6 889.8 366.6 Q 887.3 367.3 884.8 367.6 Q 882.2 368 879.6 368 L 871.1 368 Q 867.6 368 864.3 366.9 Q 861 365.9 858.2 363.8 Q 855.4 361.8 853.4 359 Q 851.3 356.2 850.2 353 Q 850.1 352.5 849.9 352 L 174.1 352 Q 173.9 352.5 173.8 353 Q 172.7 356.2 170.6 359 Q 168.6 361.8 165.8 363.8 Q 163 365.9 159.7 366.9 Q 156.4 368 152.9 368 L 144.4 368 Q 142.3 368 140.2 367.8 Q 139.9 367.8 139.6 367.7 Q 139.3 367.7 139 367.7 Q 138.8 367.6 138.5 367.6 Q 138.2 367.5 137.9 367.5 Q 136.1 367.1 134.3 366.6 Q 134.2 366.6 134.2 366.6 Q 134.1 366.6 134 366.6 Q 134 366.5 133.9 366.5 Q 133.8 366.5 133.8 366.5 Q 131.8 365.9 129.9 365.1 Q 127.1 364 124.5 362.4 Q 117.7 358.2 112.1 352.7 Q 103 343.5 97.9 331.4 Q 92.8 319.2 92.8 306 Q 92.8 303.5 92.9 301 Q 92.9 300.9 92.9 300.9 Q 92.9 300.8 93 300.7 Q 93 300.6 93 300.5 Q 93 300.4 93 300.3 Q 93.3 296.8 94 293.4 Q 94.5 290.7 95.3 288 Q 96.1 284.9 97.3 282 Q 121 221 160.8 170.4 Q 200.9 119.4 254.5 82.9 Z M 307 101.8 Q 292.9 109.9 279.5 119.1 Q 231.3 152 195.4 197.6 Q 159.6 243 138.3 298 Q 138 298.8 137.8 299.3 Q 137.8 299.5 137.8 299.7 Q 137.7 299.8 137.7 300 Q 137.6 300.1 137.6 300.3 Q 137.5 300.5 137.5 300.6 Q 137.3 301 137.3 301.3 Q 137.3 301.5 137.2 301.6 Q 137.2 301.8 137.2 301.9 Q 137.2 302.1 137.1 302.3 Q 137.1 302.4 137.1 302.6 Q 136.9 303.2 136.8 303.8 Q 136.8 304.9 136.8 306 Q 136.8 310.4 138.5 314.4 Q 139.3 316.3 140.3 317.9 Q 141.8 315.6 143.8 313.8 Q 145.9 311.9 148.3 310.6 Q 150.7 309.3 153.3 308.7 Q 156 308 158.7 308 L 865.3 308 Q 868 308 870.7 308.7 Q 873.4 309.3 875.8 310.6 Q 878.2 311.9 880.2 313.8 Q 882.2 315.7 883.7 317.9 Q 884.6 316.6 885.2 315.2 Q 887.1 310.9 887.2 306.4 Q 887.3 302.2 885.7 298.1 Q 864.5 243.1 828.6 197.6 Q 792.7 152 744.6 119.2 Q 731.1 109.9 717 101.8 Q 714.6 100.5 712.6 98.6 Q 710.7 96.8 709.2 94.5 Q 707.8 92.2 706.9 89.6 Q 706.1 87 705.9 84.3 Q 704.7 68.6 692.2 53.5 Q 677.8 36.2 650.8 22.7 Q 630.8 12.7 606.3 6 L 417.7 6 Q 393.2 12.7 373.2 22.7 Q 346.2 36.2 331.8 53.5 Q 319.3 68.6 318.1 84.3 Q 317.9 87 317.1 89.6 Q 316.2 92.2 314.8 94.5 Q 313.3 96.8 311.4 98.6 Q 309.4 100.5 307 101.8 Z"/>
</svg>
