<svg xmlns="http://www.w3.org/2000/svg" viewBox="0 0 1024 1024"
     data-schema-version="2" data-id="hair_short_curly"
     data-content-version="1">
  <path data-part="rim" data-z="18" data-slot="outline" data-tags="hair_back" data-fill-rule="evenodd" d="M 760.5 97.7 Q 791.1 129 809.7 166.7 Q 836.7 197 846.4 238.1 Q 847.2 241.6 847.9 245 Q 849.2 243.7 850.6 242.5 Q 852.1 241.4 853.8 240.5 Q 855.5 239.6 857.3 239.1 Q 859.1 238.5 860.9 238.2 Q 863.1 237.9 865.2 238 Q 867.4 238.2 869.5 238.7 Q 871.6 239.2 873.5 240.2 Q 875.5 241.1 877.2 242.4 Q 900 259.5 917.4 282.5 Q 918 283 918.5 283.5 Q 919.1 284 919.6 284.5 Q 920.2 285.1 920.7 285.6 Q 921.1 286.2 921.6 286.8 Q 946.2 319.5 957.3 360.1 Q 967.9 399 964.7 439.2 Q 961.5 479.6 945 514.7 Q 927.7 551.5 898.3 576.7 Q 898.3 576.7 898.3 576.8 Q 898.2 576.8 898.2 576.8 Q 898.2 576.8 898.1 576.9 Q 898.1 576.9 898.1 576.9 Q 894.7 579.7 890.5 581 Q 886.4 582.3 882 581.9 Q 877.7 581.5 873.8 579.5 Q 869.9 577.4 867.1 574.1 Q 835.6 536.3 823.3 476.6 Q 811.9 421.2 821.6 370.4 Q 821.1 361.3 821.2 352.5 Q 802.9 364 775.1 366.9 Q 741.4 370.4 680.9 361.8 Q 680.8 361.8 680.8 361.8 Q 680.7 361.8 680.6 361.7 Q 680.6 361.7 680.5 361.7 Q 680.5 361.7 680.4 361.7 Q 636.9 354.5 608.5 326.1 Q 582.3 300.1 577.8 265.4 Q 549.9 241.5 542.4 204.4 Q 542.4 204.3 542.4 204.2 Q 542.4 204.1 542.4 204 Q 542.3 203.9 542.3 203.8 Q 542.3 203.7 542.3 203.6 Q 540.1 190.1 540.1 177.3 Q 512 176.7 483.9 177.3 Q 483.9 190.1 481.7 203.6 Q 481.7 203.7 481.7 203.8 Q 481.7 203.9 481.6 204 Q 481.6 204.1 481.6 204.2 Q 481.6 204.3 481.6 204.4 Q 474.1 241.5 446.2 265.4 Q 441.7 300.1 415.5 326.1 Q 387.1 354.5 343.6 361.7 Q 343.5 361.7 343.5 361.7 Q 343.4 361.7 343.4 361.7 Q 343.3 361.8 343.2 361.8 Q 343.2 361.8 343.1 361.8 Q 282.6 370.4 248.9 366.9 Q 221.1 364 202.8 352.5 Q 202.9 361.3 202.4 370.4 Q 212.1 421.2 200.7 476.6 Q 188.4 536.3 156.9 574.1 Q 154.1 577.4 150.2 579.5 Q 146.3 581.5 142 581.9 Q 137.6 582.3 133.5 581 Q 129.3 579.7 125.9 576.9 Q 125.9 576.9 125.9 576.9 Q 125.8 576.8 125.8 576.8 Q 125.8 576.8 125.7 576.8 Q 125.7 576.7 125.7 576.7 Q 96.3 551.5 79 514.7 Q 62.5 479.6 59.3 439.2 Q 56.1 399 66.7 360.1 Q 77.8 319.5 102.4 286.8 Q 102.9 286.2 103.3 285.6 Q 103.8 285.1 104.4 284.5 Q 104.9 284 105.5 283.5 Q 106 283 106.6 282.5 Q 124 259.5 146.8 242.4 Q 150 240 154 238.8 Q 157.9 237.7 162 238.1 Q 166 238.5 169.7 240.2 Q 173.4 242 176.1 245 Q 176.8 241.6 177.6 238.1 Q 187.3 197 214.3 166.7 Q 232.9 129 263.5 97.7 Q 294.1 66.3 334.2 43.7 Q 373.7 21.5 418.9 9.8 Q 464.6 -2 512 -2 Q 559.4 -2 605.1 9.8 Q 650.3 21.5 689.8 43.7 Q 729.9 66.3 760.5 97.7 Z M 803.6 248.2 Q 810.7 278.6 803.7 310.4 Q 794.4 320.6 770.4 323.1 Q 742.3 326.1 687.4 318.3 Q 657.9 313.3 639.5 294.9 Q 621.8 277.3 620.9 253.2 Q 620.8 250.7 620.1 248.2 Q 619.5 245.8 618.3 243.6 Q 617.1 241.4 615.4 239.5 Q 613.7 237.6 611.7 236.1 Q 590.8 221.2 585.6 196 Q 582.5 176.8 585.7 160.2 Q 585.8 159.7 585.8 159.3 Q 585.9 158.9 586 158.5 Q 586 158.1 586 157.7 Q 586.1 157.2 586.1 156.8 Q 586.2 152.5 584.7 148.4 Q 583.2 144.3 580.2 141 Q 577.3 137.8 573.3 136 Q 569.3 134.2 564.9 134 Q 512 132 459.1 134 Q 458.7 134 458.2 134.1 Q 457.8 134.1 457.4 134.1 Q 457 134.2 456.6 134.3 Q 456.2 134.3 455.7 134.4 Q 451.4 135.2 447.8 137.6 Q 444.1 140 441.7 143.7 Q 439.2 147.3 438.3 151.6 Q 437.5 155.9 438.3 160.2 Q 441.5 176.8 438.4 196 Q 433.2 221.2 412.3 236.1 Q 410.3 237.6 408.6 239.5 Q 406.9 241.4 405.7 243.6 Q 404.5 245.8 403.9 248.2 Q 403.2 250.7 403.1 253.2 Q 402.2 277.3 384.5 294.9 Q 366.1 313.3 336.6 318.3 Q 281.7 326.1 253.6 323.1 Q 229.6 320.6 220.3 310.4 Q 213.3 278.6 220.4 248.2 Q 227.9 216.7 248.8 194.2 Q 249.4 193.6 249.9 192.9 Q 250.4 192.3 250.9 191.6 Q 251.4 190.9 251.8 190.2 Q 252.2 189.4 252.5 188.7 Q 284.3 122.3 355.8 82.1 Q 390.3 62.7 430 52.4 Q 470.2 42 512 42 Q 553.8 42 594 52.4 Q 633.7 62.7 668.2 82.1 Q 739.7 122.3 771.5 188.7 Q 771.8 189.4 772.2 190.2 Q 772.6 190.9 773.1 191.6 Q 773.6 192.3 774.1 192.9 Q 774.6 193.6 775.2 194.2 Q 796.1 216.7 803.6 248.2 Z M 865.7 370.6 Q 863.2 330.7 872.8 297.7 Q 879.4 305 885.3 313.1 Q 885.7 313.8 886.2 314.4 Q 886.8 315 887.3 315.6 Q 887.9 316.2 888.5 316.8 Q 889.1 317.3 889.7 317.8 Q 906.7 342.1 914.8 371.7 Q 923.4 403.1 920.8 435.8 Q 918.3 468.1 905.2 496 Q 897.5 512.3 886.9 525.5 Q 873.3 501.2 866.4 467.8 Q 856.5 419.6 865.3 376.3 Q 865.4 375.6 865.5 374.8 Q 865.6 374.1 865.6 373.4 Q 865.7 372.7 865.7 372 Q 865.7 371.3 865.7 370.6 Z M 138.7 313.1 Q 144.6 305 151.2 297.7 Q 160.8 330.7 158.3 370.6 Q 158.3 371.3 158.3 372 Q 158.3 372.7 158.4 373.4 Q 158.4 374.1 158.5 374.8 Q 158.6 375.6 158.7 376.3 Q 167.5 419.6 157.6 467.8 Q 150.7 501.2 137.1 525.5 Q 126.5 512.3 118.8 496 Q 105.7 468.1 103.2 435.8 Q 100.6 403.1 109.2 371.7 Q 117.3 342.1 134.3 317.8 Q 134.9 317.3 135.5 316.8 Q 136.1 316.2 136.7 315.6 Q 137.2 315 137.8 314.4 Q 138.3 313.8 138.7 313.1 Z"/>
  <path data-part="back" data-z="20" data-slot="hair.shadow" data-tags="hair_back" d="M 512 20 C 640 20 760 90 800 200 C 700 140 324 140 224 200 C 264 90 384 20 512 20 Z M 160 260 C 80 320 60 440 120 520 C 180 460 200 340 160 260 Z M 864 260 C 944 320 964 440 904 520 C 844 460 824 340 864 260 Z"/>
  <path data-part="side" data-z="70" data-slot="hair.primary" data-tags="hair_side" d="M 120 300 C 60 380 70 500 140 560 C 190 500 200 380 160 320 Z M 904 300 C 964 380 954 500 884 560 C 834 500 824 380 864 320 Z"/>
  <path data-part="top" data-z="70" data-slot="hair.primary" data-tags="hair_top" data-clip-by="occlude.hair_top:difference" d="M 200 320 C 180 240 220 160 300 140 C 360 120 400 160 420 220 C 440 280 400 330 340 340 C 270 350 220 350 200 320 Z M 300 200 C 280 140 320 90 380 90 C 440 90 470 140 460 200 C 450 250 400 280 350 270 C 310 260 310 230 300 200 Z M 824 320 C 844 240 804 160 724 140 C 664 120 624 160 604 220 C 584 280 624 330 684 340 C 754 350 804 350 824 320 Z M 724 200 C 744 140 704 90 644 90 C 584 90 554 140 564 200 C 574 250 624 280 674 270 C 714 260 714 230 724 200 Z"/>
  <path data-part="highlight" data-z="80" data-slot="hair.highlight" data-tags="hair_top" data-clip-by="occlude.hair_top:difference" d="M 360 120 C 400 100 450 120 470 160 C 430 180 380 170 360 120 Z M 580 110 C 640 130 690 180 720 200 C 680 220 620 190 580 110 Z"/>
</svg>
