<svg xmlns="http://www.w3.org/2000/svg" viewBox="0 0 1024 1024"
     data-schema-version="1" data-id="top_crew_tee"
     data-content-version="1">
  <path data-part="shirt" data-z="36" data-slot="top.primary" d="M 404 948 L 404 1024 C 404 1120 20 1180 -80 1220 L -80 1480 L 1104 1480 L 1104 1220 C 1004 1180 620 1120 620 1024 L 620 948 Z"/>
  <path data-part="sticker_dark" data-z="38" data-slot="outline" data-fill-rule="evenodd" d="M 340 948 Q 340 935.3 344.9 923.5 Q 349.7 911.7 358.7 902.7 Q 367.7 893.7 379.5 888.9 Q 391.3 884 404 884 L 620 884 Q 632.7 884 644.5 888.9 Q 656.3 893.7 665.3 902.7 Q 674.3 911.7 679.1 923.5 Q 684 935.3 684 948 L 684 1015.2 Q 686.5 1017.4 690.7 1020.4 Q 713 1036.4 760.7 1054.5 Q 803.2 1070.7 867.7 1088.8 Q 906.5 1099.7 983.2 1119.2 Q 1040 1133.6 1064 1140.2 Q 1105.6 1151.7 1127.8 1160.6 Q 1136.7 1164.1 1144.1 1170.2 Q 1151.6 1176.2 1157 1184.1 Q 1162.4 1192.1 1165.2 1201.2 Q 1168 1210.4 1168 1220 L 1168 1480 Q 1168 1492.7 1163.1 1504.5 Q 1158.3 1516.3 1149.3 1525.3 Q 1140.3 1534.3 1128.5 1539.1 Q 1116.7 1544 1104 1544 L -80 1544 Q -92.7 1544 -104.5 1539.1 Q -116.3 1534.3 -125.3 1525.3 Q -134.3 1516.3 -139.1 1504.5 Q -144 1492.7 -144 1480 L -144 1220 Q -144 1210.4 -141.2 1201.2 Q -138.4 1192.1 -133 1184.1 Q -127.6 1176.2 -120.1 1170.2 Q -112.7 1164.1 -103.8 1160.6 Q -81.6 1151.7 -40 1140.2 Q -16 1133.6 40.8 1119.2 Q 117.5 1099.7 156.3 1088.8 Q 220.8 1070.7 263.3 1054.5 Q 311 1036.4 333.3 1020.4 Q 337.5 1017.4 340 1015.2 L 340 948 Z M 348 948 Q 348 936.9 352.3 926.6 Q 356.5 916.3 364.4 908.4 Q 372.3 900.5 382.6 896.3 Q 392.9 892 404 892 L 620 892 Q 631.1 892 641.4 896.3 Q 651.7 900.5 659.6 908.4 Q 667.5 916.3 671.7 926.6 Q 676 936.9 676 948 L 676 1018.5 Q 679.2 1022 686 1026.9 Q 709.2 1043.5 757.8 1062 Q 800.7 1078.3 865.5 1096.5 Q 904.4 1107.5 981.2 1127 Q 1037.9 1141.3 1061.8 1147.9 Q 1103.1 1159.3 1124.8 1168 Q 1132.6 1171.1 1139.1 1176.4 Q 1145.7 1181.7 1150.4 1188.6 Q 1155.1 1195.6 1157.5 1203.6 Q 1160 1211.6 1160 1220 L 1160 1480 Q 1160 1491.1 1155.7 1501.4 Q 1151.5 1511.7 1143.6 1519.6 Q 1135.7 1527.5 1125.4 1531.7 Q 1115.1 1536 1104 1536 L -80 1536 Q -91.1 1536 -101.4 1531.7 Q -111.7 1527.5 -119.6 1519.6 Q -127.5 1511.7 -131.7 1501.4 Q -136 1491.1 -136 1480 L -136 1220 Q -136 1211.6 -133.5 1203.6 Q -131.1 1195.6 -126.4 1188.6 Q -121.7 1181.7 -115.1 1176.4 Q -108.6 1171.1 -100.8 1168 Q -79.1 1159.3 -37.8 1147.9 Q -13.9 1141.3 42.8 1127 Q 119.6 1107.5 158.5 1096.5 Q 223.3 1078.3 266.2 1062 Q 314.8 1043.5 338 1026.9 Q 344.8 1022 348 1018.5 L 348 948 Z"/>
  <path data-part="sticker" data-z="39" data-slot="face.highlight" data-fill-rule="evenodd" d="M 348 948 Q 348 936.9 352.3 926.6 Q 356.5 916.3 364.4 908.4 Q 372.3 900.5 382.6 896.3 Q 392.9 892 404 892 L 620 892 Q 631.1 892 641.4 896.3 Q 651.7 900.5 659.6 908.4 Q 667.5 916.3 671.7 926.6 Q 676 936.9 676 948 L 676 1018.5 Q 679.2 1022 686 1026.9 Q 709.2 1043.5 757.8 1062 Q 800.7 1078.3 865.5 1096.5 Q 904.4 1107.5 981.2 1127 Q 1037.9 1141.3 1061.8 1147.9 Q 1103.1 1159.3 1124.8 1168 Q 1132.6 1171.1 1139.1 1176.4 Q 1145.7 1181.7 1150.4 1188.6 Q 1155.1 1195.6 1157.5 1203.6 Q 1160 1211.6 1160 1220 L 1160 1480 Q 1160 1491.1 1155.7 1501.4 Q 1151.5 1511.7 1143.6 1519.6 Q 1135.7 1527.5 1125.4 1531.7 Q 1115.1 1536 1104 1536 L -80 1536 Q -91.1 1536 -101.4 1531.7 Q -111.7 1527.5 -119.6 1519.6 Q -127.5 1511.7 -131.7 1501.4 Q -136 1491.1 -136 1480 L -136 1220 Q -136 1211.6 -133.5 1203.6 Q -131.1 1195.6 -126.4 1188.6 Q -121.7 1181.7 -115.1 1176.4 Q -108.6 1171.1 -100.8 1168 Q -79.1 1159.3 -37.8 1147.9 Q -13.9 1141.3 42.8 1127 Q 119.6 1107.5 158.5 1096.5 Q 223.3 1078.3 266.2 1062 Q 314.8 1043.5 338 1026.9 Q 344.8 1022 348 1018.5 L 348 948 Z M 378 948 Q 378 942.8 380 938.1 Q 382 933.3 385.6 929.6 Q 389.3 926 394.1 924 Q 398.8 922 404 922 L 620 922 Q 625.2 922 629.9 924 Q 634.7 926 638.4 929.6 Q 642 933.3 644 938.1 Q 646 942.8 646 948 L 646 1024 Q 646 1035.1 668.5 1051.3 Q 694.9 1070.2 747.2 1090.1 Q 791.3 1106.8 857.4 1125.4 Q 896.7 1136.4 973.8 1156 Q 1030.2 1170.4 1053.9 1176.9 Q 1093.5 1187.8 1113.7 1195.9 Q 1117.3 1197.3 1120.3 1199.8 Q 1123.3 1202.2 1125.5 1205.4 Q 1127.7 1208.7 1128.9 1212.4 Q 1130 1216.1 1130 1220 L 1130 1480 Q 1130 1485.2 1128 1489.9 Q 1126 1494.7 1122.4 1498.4 Q 1118.7 1502 1113.9 1504 Q 1109.2 1506 1104 1506 L -80 1506 Q -85.2 1506 -89.9 1504 Q -94.7 1502 -98.4 1498.4 Q -102 1494.7 -104 1489.9 Q -106 1485.2 -106 1480 L -106 1220 Q -106 1216.1 -104.9 1212.4 Q -103.7 1208.7 -101.5 1205.4 Q -99.3 1202.2 -96.3 1199.8 Q -93.3 1197.3 -89.7 1195.9 Q -69.5 1187.8 -29.9 1176.9 Q -6.2 1170.4 50.2 1156 Q 127.3 1136.4 166.6 1125.4 Q 232.7 1106.8 276.8 1090.1 Q 329.1 1070.2 355.5 1051.3 Q 378 1035.1 378 1024 L 378 948 Z"/>
</svg>
